<svg xmlns="http://www.w3.org/2000/svg" width="294" height="264" viewBox="0 0 294 264" fill="none">
<path d="M65.7752 263.79C54.1502 263.79 44.3981 259.957 36.5189 252.29C28.6398 244.623 24.7002 235.568 24.7002 225.123C24.7002 213.568 29.2856 203.457 38.4564 194.79C47.6273 186.123 56.7335 177.568 65.7752 169.123C73.2669 162.234 79.7252 154.734 85.1502 146.623C90.5752 138.512 97.0335 130.901 104.525 123.79C110.209 118.012 116.796 113.234 124.288 109.457C131.779 105.679 139.917 103.79 148.7 103.79C157.484 103.79 165.621 105.568 173.113 109.123C180.604 112.679 187.192 117.346 192.875 123.123C200.109 130.234 206.502 137.901 212.056 146.123C217.611 154.346 224.134 162.012 231.625 169.123C240.667 177.568 249.773 186.123 258.944 194.79C268.115 203.457 272.7 213.568 272.7 225.123C272.7 235.568 268.761 244.623 260.881 252.29C253.002 259.957 243.25 263.79 231.625 263.79C217.675 263.79 203.854 262.79 190.163 260.79C176.471 258.79 162.65 257.79 148.7 257.79C134.75 257.79 120.929 258.79 107.238 260.79C93.546 262.79 79.7252 263.79 65.7752 263.79Z" fill="white"/>
<ellipse cx="35.5" cy="97.5" rx="35.5" ry="44.5" fill="white"/>
<ellipse cx="106.5" cy="44.5" rx="35.5" ry="44.5" fill="white"/>
<ellipse cx="258.5" cy="97.5" rx="35.5" ry="44.5" fill="white"/>
<ellipse cx="187.5" cy="44.5" rx="35.5" ry="44.5" fill="white"/>
</svg>