<svg xmlns="http://www.w3.org/2000/svg" width="33" height="33" viewBox="0 0 33 33" fill="none">
<path d="M29.1802 0.0617173C29.9578 0.231174 30.4886 0.525234 31.0866 1.12083C31.6298 1.66409 31.9961 2.1949 32.0684 2.54876C32.1133 2.75561 32.0858 3.16677 32.0111 3.42843C31.9787 3.54556 31.9213 3.74742 31.884 3.877C31.6922 4.54736 31.6298 4.73925 31.5102 5.02831C31.2436 5.66877 30.8672 6.22699 30.3764 6.7179C29.9103 7.18142 29.4419 7.51037 28.6668 7.91407C28.4476 8.02872 28.0114 8.26795 27.6949 8.44489C26.9348 8.876 26.5062 9.10279 26.3244 9.17256C25.3947 9.52393 24.7544 10.3014 24.4703 11.4229C24.4428 11.5275 24.363 11.9512 24.2933 12.3623C23.6304 16.2698 23.2416 18.2236 22.6835 20.449C22.1004 22.7864 21.5446 24.461 20.8044 26.1357C20.1043 27.7131 19.1373 29.2756 18.2975 30.1802C17.2882 31.2693 16.2092 32.0567 15.1351 32.4929C14.4 32.792 13.7944 32.929 12.9596 32.9864C12.3416 33.0286 11.9653 32.9763 11.4843 32.7795C11.0607 32.6075 10.7641 32.4156 10.0016 31.8276C9.04962 31.0874 8.43658 30.3324 7.89582 29.2334C7.3675 28.1617 7.01362 26.9382 6.71458 25.1464C6.54014 24.1123 6.50028 23.534 6.56009 22.8662C6.62737 22.0687 6.6498 21.5753 6.6498 20.7355C6.6498 18.6323 6.41804 16.7383 5.84986 14.1865C5.53835 12.791 5.42372 12.3723 5.02002 11.1363C4.72595 10.2392 4.66614 10.0198 4.64621 9.78061C4.60883 9.3495 4.40199 8.86354 4.0531 8.40002C3.76153 8.01377 3.23324 7.48048 2.87438 7.20884C1.82025 6.41389 1.01533 5.60896 0.561784 4.89126C0.302613 4.48258 0.105742 3.97669 0.0309818 3.53061C-0.0213506 3.20166 -0.00639846 2.64844 0.0683623 2.33196C0.207915 1.72888 0.571751 0.996228 0.880761 0.70217C1.23712 0.360763 1.67322 0.226195 2.52549 0.196291C4.17023 0.138974 5.55082 0.657312 7.17312 1.94071C7.33012 2.0653 7.80859 2.51138 8.23224 2.93004C8.65838 3.35119 9.05958 3.72998 9.12438 3.77484C9.47824 4.01407 9.81218 4.1013 10.4501 4.11874C10.9984 4.13369 11.0283 4.1287 12.4313 3.8496C13.453 3.64774 14.0087 3.56551 14.5993 3.52564C15.3395 3.47828 15.798 3.52562 16.2217 3.6901C17.0365 4.01157 17.677 4.02403 18.5741 3.73497C19.0102 3.59541 19.1773 3.52065 19.6232 3.27144C21.2829 2.3444 23.2192 1.42236 24.9163 0.749516C25.9506 0.338332 26.8178 0.106576 27.645 0.0143712C27.7547 0.00191119 28.0912 -0.00307443 28.3926 0.00190969C28.8337 0.00689361 28.9883 0.0193529 29.1802 0.0617173Z" fill="white"/>
<path d="M22.8106 3.65768C22.7832 3.67263 22.7209 3.71997 22.6735 3.76733C22.5565 3.87947 22.3146 4.01901 22.1627 4.06637C22.0879 4.0888 21.8687 4.11372 21.6219 4.12618C21.3005 4.14113 21.1883 4.15609 21.1409 4.18599C21.1061 4.20842 21.0786 4.24081 21.0786 4.25825C21.0786 4.2757 21.0562 4.33052 21.0287 4.38285C20.9614 4.50746 20.9665 4.57972 21.0463 4.65947C21.111 4.72427 21.131 4.73174 21.3079 4.76165C21.5197 4.79404 21.6543 5.00088 21.6717 5.30989C21.6791 5.48683 21.6743 5.51922 21.6219 5.59646C21.5296 5.73354 21.4175 5.7734 21.0837 5.79335C20.9216 5.80331 20.7671 5.82573 20.7372 5.84069C20.665 5.88055 20.6474 5.95531 20.66 6.16216C20.6725 6.37648 20.7099 6.40638 20.9764 6.42631C21.3229 6.44873 21.4549 6.5559 21.4724 6.82254C21.4874 7.03686 21.5023 7.04932 21.7141 7.03686C21.9384 7.02191 22.023 6.97705 22.1726 6.78766L22.2922 6.63315L22.3097 6.22944C22.3396 5.57903 22.4443 5.19775 22.6462 5.00585C22.6959 4.95851 22.848 4.85136 22.9826 4.76662C23.2616 4.59218 23.319 4.52989 23.3388 4.37289C23.3463 4.31308 23.3738 4.22087 23.3986 4.17104C23.4261 4.11871 23.4461 4.07134 23.4461 4.06387C23.4461 4.024 23.1271 3.71748 23.0424 3.67511C22.9377 3.62029 22.8828 3.61781 22.8106 3.65768Z" fill="#101010"/>
<path d="M18.7955 10.8795C18.5687 10.9368 18.4067 11.019 18.1251 11.2159C17.1806 11.8738 16.6523 12.7485 16.3583 14.139C16.2387 14.7072 16.3009 15.3402 16.5327 15.9159C16.737 16.4192 17.1931 16.9351 17.6267 17.1544C17.689 17.1843 17.8261 17.2142 17.9881 17.2316C18.1326 17.2466 18.3519 17.2815 18.474 17.3089C18.925 17.4086 19.5357 17.4883 19.7175 17.4709C20.0465 17.441 20.3479 17.2964 20.5946 17.0472C20.9636 16.6809 21.2776 16.028 21.4295 15.3153C21.4768 15.101 21.4869 14.9714 21.4869 14.5926C21.4893 14.0967 21.4693 13.9347 21.3523 13.4811C21.1281 12.6314 20.5449 11.6072 20.044 11.196C19.6553 10.8745 19.2265 10.7648 18.7955 10.8795Z" fill="#101010"/>
<path d="M9.22014 11.5549C8.94104 11.6097 8.75163 11.6944 8.52735 11.8639C8.24077 12.0757 8.0115 12.4545 7.97163 12.766C7.95917 12.8607 7.91431 13.0476 7.87196 13.1846C7.72492 13.6606 7.6975 14.336 7.81215 14.7721C8.01649 15.567 8.58966 16.0704 9.39457 16.1626C9.52417 16.1776 9.69612 16.2075 9.77585 16.2274C9.95279 16.2747 10.0998 16.2573 10.2743 16.1701C10.4238 16.0928 10.6331 15.9009 10.7801 15.7016C10.8424 15.6193 10.9346 15.5172 10.987 15.4723C11.2237 15.2705 11.4804 14.8219 11.5851 14.4306C11.6598 14.1515 11.6798 13.6581 11.6249 13.3541C11.5402 12.8657 11.3458 12.4819 11.0269 12.1629C10.5434 11.6844 9.81075 11.4377 9.22014 11.5549Z" fill="#101010"/>
<path d="M13.1309 24.3265C12.8393 24.3764 12.4506 24.511 12.1316 24.6754C11.0077 25.2487 10.3598 26.2105 10.1206 27.6634C10.0558 28.0621 10.0558 29.0813 10.123 29.4327C10.3399 30.5866 11.0177 31.3316 12.0319 31.5286C12.3808 31.5983 13.2779 31.5609 13.7439 31.4613C14.2424 31.354 14.7806 31.1099 15.3239 30.7436C15.7052 30.4868 16.0067 30.2176 16.2958 29.8737C17.31 28.6677 17.5443 27.3818 16.9612 26.2505C16.4503 25.261 15.4161 24.5235 14.2648 24.3241C13.9907 24.2768 13.4175 24.2792 13.1309 24.3265Z" fill="#101010"/>
</svg>