<svg xmlns="http://www.w3.org/2000/svg" width="35" height="33" viewBox="0 0 35 33" fill="none">
	<path d="M15.1188 1.41758C15.3966 0.983726 15.7826 0.625999 16.2404 0.378045C16.6983 0.130093 17.213 0 17.7363 0C18.2597 0 18.7744 0.130093 19.2322 0.378045C19.6901 0.625999 20.076 0.983726 20.3538 1.41758C20.3538 1.41758 22.8278 9.04478 24.0003 9.74078C25.1728 10.4368 32.3009 10.4368 32.3009 10.4368C32.85 10.4968 33.3722 10.7024 33.8108 11.0313C34.2494 11.3602 34.588 11.7999 34.7901 12.3032C34.9918 12.8064 35.0498 13.3541 34.9569 13.8871C34.8644 14.4201 34.6248 14.9183 34.2641 15.3279C34.2641 15.3279 27.6037 20.201 27.6037 21.4025C27.6037 22.604 29.4288 29.4468 29.4288 29.4468C29.5404 30.0064 29.4863 30.5857 29.2731 31.1165C29.0597 31.6471 28.6959 32.1073 28.2247 32.4429C27.7474 32.7724 27.1852 32.9636 26.6021 32.9953C26.019 33.027 25.4383 32.8978 24.9267 32.6222C24.9267 32.6222 19.4479 28.3472 17.7339 28.3471C16.0199 28.347 9.97958 32.5475 9.97958 32.5475C9.46795 32.8232 8.88744 32.9524 8.30427 32.9207C7.72109 32.889 7.15879 32.6977 6.68152 32.3683C6.21018 32.0327 5.84652 31.5724 5.63324 31.0419C5.41994 30.5111 5.36592 29.9318 5.47749 29.3722C5.47749 29.3722 6.7289 25.8022 7.04299 24.3814C7.35708 22.9607 19.2818 17.9582 19.1158 17.0167C18.9498 16.0751 6.60048 18.7314 5.53989 18.6062C4.47929 18.481 0.73604 15.314 0.73604 15.314C0.375313 14.9044 0.135693 14.4063 0.0430076 13.8733C-0.0496782 13.3403 0.0080895 12.7926 0.210082 12.2894C0.412071 11.7861 0.750633 11.3463 1.18925 11.0174C1.62789 10.6886 2.14994 10.483 2.69917 10.423C2.69917 10.423 10.5658 10.1892 11.2538 9.5161C11.9419 8.84303 15.1188 1.41758 15.1188 1.41758Z" fill="#fff"/>
</svg>