<svg xmlns="http://www.w3.org/2000/svg" width="36" height="33" viewBox="0 0 36 33" fill="none">
	<path d="M30.1547 -3.32409e-07L5.84282 -3.32409e-07C1.37343 -3.32409e-07 -1.46088 4.42095 0.789134 7.99313L15.7924 31.8321C16.7725 33.3893 19.2251 33.3893 20.2052 31.8321L35.2131 7.99313C37.4584 4.42527 34.6265 -3.32409e-07 30.1594 -3.32409e-07H30.1547ZM15.7806 24.6835L12.5128 18.8868L4.62711 5.96083C4.10643 5.13366 4.74963 4.07323 5.83811 4.07323H15.7759L15.7759 24.6856L15.7806 24.6835ZM31.3634 5.95651L23.4824 18.8889L20.2146 24.6835L20.2146 4.06891L30.1524 4.06891C31.2409 4.06891 31.8841 5.12934 31.3634 5.95651Z" fill="white"/>
</svg>